<?xml version="1.0" encoding="utf-8"?>
<!DOCTYPE svg PUBLIC "-//W3C//DTD SVG 1.0//EN" "http://www.w3.org/TR/2001/REC-SVG-20010904/DTD/svg10.dtd">
<svg version="1.0" xmlns="http://www.w3.org/2000/svg" width="531px" height="469px" viewBox="0 0 531 469" preserveAspectRatio="xMidYMid meet">
 <g fill="#000000">
  <path d="M253.30 414.11 c-10.93 -2.25 -25.38 -5.91 -38.56 -9.71 -33.38 -9.61 -52.17 -18.16 -63.11 -28.60 l-4.49 -4.29 -6.49 4.83 c-9.18 6.74 -11.23 7.61 -14.20 6.05 -1.51 -0.78 -2.49 -2.54 -4.93 -8.88 -2.10 -5.56 -3.27 -7.17 -5.37 -7.37 -0.93 -0.10 -5.66 0.20 -10.54 0.63 -10.93 1.02 -16.59 0.88 -17.57 -0.49 -0.93 -1.22 -0.88 -2.93 0.10 -4.44 0.88 -1.27 7.03 -6 13.96 -10.74 2.39 -1.56 4.29 -3.03 4.29 -3.22 0 -0.20 -1.27 -0.44 -2.78 -0.63 -8.39 -0.88 -10.88 -1.76 -10.88 -3.81 0 -1.66 1.71 -2.98 5.86 -4.64 2 -0.78 3.61 -1.61 3.56 -1.85 0 -0.24 -2.54 -1.51 -5.61 -2.88 -9.32 -4.20 -13.52 -6.49 -20.74 -11.27 -19.91 -13.23 -26.01 -25.72 -20.45 -41.78 2.15 -6.10 5.17 -9.81 10.20 -12.49 2.25 -1.17 3.07 -1.32 7.22 -1.32 l4.73 0 0.29 -2.15 c0.15 -1.17 0.29 -2.73 0.29 -3.51 0 -4.10 2.20 -5.27 8.10 -4.34 3.12 0.49 4.25 0.54 4.69 0.10 0.44 -0.44 0.39 -1.85 -0.24 -5.81 -2.20 -14.20 -2.88 -25.43 -2.93 -49.68 -0.05 -22.26 0.24 -25.57 3.32 -40.02 2.44 -11.37 4.93 -19.96 6.69 -23.38 2 -3.81 9.27 -11.08 17.47 -17.62 3.37 -2.64 6.25 -4.93 6.49 -5.12 0.20 -0.15 -0.24 -3.81 -0.93 -8.10 -1.46 -9.13 -2.15 -27.72 -1.22 -33.63 1.07 -7.13 2.98 -11.18 6.30 -13.42 1.56 -1.12 2.20 -1.22 6.64 -1.22 4.10 0.05 5.61 0.24 8.83 1.37 6.83 2.39 26.16 12.15 34.16 17.33 1.90 1.22 3.66 2.20 3.90 2.20 0.29 0 4.34 -1.81 9.03 -4.05 22.89 -10.74 42.95 -18.06 60.52 -22.16 12.79 -2.93 16.79 -3.27 24.21 -2 19.23 3.32 44.12 12.10 73.11 25.82 l5.76 2.73 3.27 -2.15 c4.73 -3.12 19.72 -11.23 26.31 -14.20 8.20 -3.71 13.03 -5.12 17.47 -5.12 8.88 0 12.25 5.42 13.13 20.99 0.44 7.03 -0.44 20.21 -1.85 28.70 l-1.12 6.54 4.44 3.47 c10.69 8.39 16.01 13.57 19.23 18.69 3.66 5.76 8.93 27.72 10.35 43.14 1.12 12.25 0 51.83 -1.81 65.15 -0.44 2.98 -0.88 6.83 -1.02 8.69 -0.34 3.81 -0.68 3.61 5.32 2.68 4.54 -0.68 5.95 -0.20 7.03 2.29 0.34 0.93 0.68 3.07 0.68 4.73 l0 3.07 4.73 0 c4.44 0 5.03 0.10 7.71 1.56 4.78 2.49 7.71 6.10 10.15 12.49 1.42 3.71 1.51 4.44 1.56 10.10 0 5.51 -0.15 6.39 -1.32 9.18 -2.05 4.98 -4.29 8.30 -8.20 12.20 -8.15 8.20 -21.77 16.64 -36.26 22.55 -1.51 0.63 -2.73 1.42 -2.64 1.66 0.10 0.29 1.81 1.12 3.81 1.90 3.51 1.32 5.81 3.07 5.81 4.49 0 0.39 -0.49 1.12 -1.02 1.66 -0.98 0.93 -3.51 1.46 -10.05 2.29 -1.42 0.15 -2.59 0.44 -2.59 0.63 0 0.15 3.51 2.78 7.81 5.81 8.05 5.76 11.23 8.69 11.23 10.35 0 0.59 -0.54 1.56 -1.22 2.20 -1.07 1.12 -1.56 1.22 -5.71 1.22 -2.49 0 -7.61 -0.34 -11.37 -0.73 -10.44 -1.07 -11.62 -1.02 -13.08 0.68 -0.63 0.78 -1.90 3.17 -2.78 5.27 -3.95 9.66 -4.83 10.79 -8.10 10.25 -2.29 -0.39 -4.64 -1.81 -11.76 -7.13 l-5.91 -4.39 -3.81 3.76 c-7.71 7.56 -18.30 13.37 -38.21 20.89 -16.06 6.05 -44.46 14.01 -65.40 18.30 -9.32 1.90 -13.08 1.85 -23.48 -0.29z m24.35 -5.86 c41.83 -9.22 74.62 -20.35 90.78 -30.84 11.66 -7.56 18.45 -18.35 25.67 -40.65 2.15 -6.78 2.78 -13.23 1.56 -16.20 -1.07 -2.54 -3.07 -3.47 -7.13 -3.22 -2.64 0.15 -4.69 0.83 -11.52 3.76 -18.64 7.96 -39.04 15.67 -46.85 17.67 -8.05 2.10 -18.16 1.32 -26.60 -2 -3.71 -1.46 -12.05 -5.71 -14.45 -7.37 -2.39 -1.66 -5.27 -4.59 -9.86 -10.25 -5.12 -6.25 -9.42 -8.59 -14.74 -8.10 -5.17 0.44 -8.10 2.64 -15.32 11.42 -4.44 5.47 -6.20 6.83 -12.93 10.35 -13.81 7.13 -24.40 8.78 -36.07 5.66 -7.03 -1.85 -28.06 -9.86 -50.12 -18.99 -7.76 -3.22 -12.10 -3.12 -14.20 0.34 -1.32 2.25 -1.22 8.54 0.29 14.01 1.37 4.98 6.54 18.55 8.78 22.94 4.15 8.25 10.49 15.67 17.28 20.21 12.84 8.64 34.55 16.79 68.23 25.72 13.57 3.56 32.06 7.66 34.99 7.71 1.12 0.05 6.64 -0.93 12.20 -2.15z m-155.93 -73.99 c0.68 -0.83 1.27 -1.76 1.32 -2.05 0 -0.34 0.20 -1.66 0.39 -3.03 0.24 -1.32 0.24 -3.81 0 -5.47 -0.49 -3.42 -5.81 -17.47 -7.37 -19.47 -0.59 -0.68 -2.59 -2.05 -4.49 -2.93 l-3.42 -1.66 -1.42 1.37 -1.37 1.32 2.83 0.59 c3.42 0.68 5.12 2.44 6.05 6.15 1.02 4.25 0.83 7.42 -0.49 8.83 -2.44 2.59 -7.96 2 -11.32 -1.17 -2.05 -1.95 -2.34 -2.93 -1.17 -3.90 0.59 -0.49 1.37 -0.44 3.90 0.20 1.71 0.44 3.27 0.78 3.42 0.78 0.49 0 0.24 -3.37 -0.34 -4.69 -0.63 -1.37 -1.12 -1.37 -6.25 -0.44 -2.44 0.49 -4.10 -0.93 -4.05 -3.37 0.05 -1.61 0.68 -3.03 2.83 -6.30 l0.83 -1.27 -3.95 -1.95 c-7.32 -3.71 -10.88 -2.34 -13.08 4.93 -0.88 3.17 -1.42 3.81 -2.88 3.81 -1.51 0 -2.15 -1.32 -2.15 -4.49 0 -4.25 2.20 -7.96 6.34 -10.69 l1.12 -0.73 -3.17 -1.81 c-4.78 -2.68 -5.56 -3.81 -5.95 -8.69 -0.39 -4.88 -0.78 -5.32 -4.64 -5.32 -5.56 0 -9.81 3.37 -12.35 9.66 -0.93 2.34 -1.12 3.71 -1.12 8.69 0 5.86 0 5.86 1.90 9.76 5.76 11.62 28.75 26.16 53.49 33.82 4.34 1.32 5.08 1.27 6.54 -0.49z m297.03 -0.29 c20.45 -6.93 39.19 -17.96 47.59 -27.97 2.54 -2.98 4.59 -7.56 5.17 -11.42 1.32 -8.39 -2.68 -18.20 -8.59 -20.84 -2.15 -0.98 -6.30 -1.22 -8.25 -0.44 -1.17 0.44 -1.27 0.68 -1.27 3.66 0 5.27 -1.56 7.56 -6.98 10.30 l-2.39 1.27 2.39 1.61 c1.56 1.02 2.83 2.44 3.71 4.10 2.73 4.98 2.15 10.59 -1.02 10.20 -1.17 -0.15 -1.46 -0.59 -2.59 -3.95 -2.54 -7.52 -5.91 -8.64 -13.27 -4.54 -1.81 1.02 -3.27 1.90 -3.27 2 0 0.05 0.78 1.42 1.71 2.98 2.10 3.51 2.15 5.66 0.15 7.17 -1.17 0.88 -1.46 0.93 -4.54 0.29 -3.03 -0.59 -3.32 -0.59 -3.90 0.24 -0.68 0.93 -1.46 4.59 -1.07 4.98 0.10 0.10 1.66 -0.10 3.42 -0.54 3.51 -0.83 4.73 -0.63 4.73 0.83 0 1.56 -0.88 2.73 -3.07 4 -5.56 3.27 -11.08 1.46 -11.08 -3.56 0 -2.39 1.02 -6.49 2.05 -8.39 1.12 -2 2.44 -2.78 5.61 -3.22 l2.15 -0.29 -1.07 -1.12 c-0.63 -0.63 -1.51 -1.17 -2 -1.17 -1.61 0 -7.13 2.78 -7.91 4.05 -1.17 1.71 -6.05 14.06 -6.88 17.33 -1.42 5.27 -0.73 10.88 1.56 13.13 1.42 1.46 3.03 1.37 8.93 -0.68z m-201.08 -0.34 c7.32 -1.56 18.89 -6.64 22.45 -9.86 1.17 -1.02 4.29 -4.49 6.93 -7.66 2.68 -3.17 5.66 -6.30 6.64 -6.93 5.22 -3.47 12.69 -4.34 19.03 -2.25 4.34 1.42 6.98 3.71 13.13 11.13 4.44 5.37 6.15 6.78 11.71 9.61 12.74 6.39 21.86 7.96 31.43 5.42 7.22 -1.85 25.09 -8.64 46.56 -17.57 16.79 -6.98 45.83 -21.04 63.59 -30.75 6.30 -3.47 8 -4.59 8.30 -5.56 0.44 -1.56 0.44 -15.96 0.05 -16.40 -0.93 -0.88 -55.15 9.22 -81.21 15.18 -30.31 6.93 -49.20 11.96 -72.23 19.28 -7.81 2.44 -14.74 4.44 -15.42 4.44 -0.68 0 -3.32 -0.98 -5.86 -2.15 -6.25 -2.83 -8.35 -2.83 -14.30 0 -2.54 1.22 -5.03 2.05 -6.05 2.05 -0.93 0 -7.86 -1.95 -15.42 -4.34 -19.72 -6.25 -33.24 -10.10 -49.34 -13.91 -5.08 -1.22 -12.10 -2.88 -15.62 -3.71 -22.89 -5.42 -71.06 -14.89 -86.09 -16.89 l-2.49 -0.34 0 8.59 0 8.59 1.56 1.17 c3.81 2.78 35.63 19.03 52.12 26.55 22.45 10.25 55.49 23.38 65.64 26.06 4.10 1.07 10.49 1.17 14.89 0.24z m40.51 -39.09 c3.27 -1.22 4.05 -1.32 8.54 -1.07 3.86 0.15 5.51 0.49 7.91 1.51 3.81 1.56 5.08 1.61 9.42 0 25.48 -9.18 66.86 -19.91 110.20 -28.55 8.35 -1.71 15.23 -3.22 15.23 -3.42 0 -0.20 -0.49 -0.44 -1.07 -0.59 -0.63 -0.10 -4.73 -1.32 -9.18 -2.64 -4.44 -1.37 -8.59 -2.59 -9.27 -2.73 -0.98 -0.24 -1.85 0.20 -4.39 2.39 -1.76 1.51 -4.10 3.17 -5.27 3.76 -2.10 1.02 -2.10 1.02 -8.78 0.20 -3.66 -0.44 -10.40 -1.71 -14.93 -2.78 -4.54 -1.07 -9.13 -1.95 -10.10 -1.95 -1.07 0 -6.30 1.56 -12.25 3.71 -5.71 2 -14.40 5.08 -19.28 6.78 -4.88 1.76 -12.40 4.59 -16.69 6.34 -4.29 1.76 -8.25 3.17 -8.83 3.17 -1.46 0 -1.66 -1.12 -0.54 -3.27 1.71 -3.32 7.76 -8.64 21.72 -19.08 10.35 -7.71 14.69 -10.59 18.30 -12.05 3.22 -1.32 4.29 -1.02 -13.37 -3.81 -18.01 -2.88 -17.67 -2.88 -18.06 -1.85 -0.20 0.44 -1.32 3.51 -2.54 6.88 -5.27 14.59 -7.81 15.81 -13.62 6.64 -0.78 -1.22 -1.56 -2.25 -1.76 -2.25 -0.49 0 -1.17 1.12 -5.71 9.52 -4.49 8.25 -5.56 9.52 -8.30 9.52 -2.68 0 -3.61 -1.17 -8.78 -10.74 -2.49 -4.54 -4.73 -8.30 -4.98 -8.30 -0.24 0 -1.46 1.56 -2.68 3.47 -2.73 4.15 -4.83 5.42 -6.83 4.10 -1.51 -0.98 -2.73 -3.37 -6.05 -12.20 l-2.78 -7.32 -1.66 0.15 c-2.05 0.20 -18.20 2.68 -25.82 4 -3.07 0.54 -5.71 0.98 -5.86 0.98 -0.15 0 1.51 0.88 3.66 1.90 5.47 2.59 16.79 10.83 31.09 22.60 5.27 4.34 8.20 7.96 8.20 10.01 0 1.76 -1.61 1.46 -9.61 -1.90 -6.93 -2.88 -18.40 -7.03 -38.80 -14.10 l-9.61 -3.32 -5.27 1.22 c-10.20 2.39 -16.54 3.61 -21.62 4.20 -5.03 0.54 -5.22 0.54 -7.47 -0.59 -1.32 -0.63 -3.66 -2.34 -5.22 -3.81 l-2.88 -2.59 -2.10 0.54 c-4.59 1.22 -18.20 5.51 -18.59 5.86 -0.24 0.20 3.27 1.07 7.81 1.90 43.39 8.25 86.82 19.28 116.06 29.53 5.66 2 7.13 2 12.45 0.05z m-142.32 -35.58 c59.35 -18.45 119.67 -29.53 154.76 -28.45 34.99 1.12 83.94 10.35 133.97 25.28 17.96 5.37 16.98 5.17 23.04 4.15 6 -1.02 6.74 -1.22 6.74 -1.76 0 -0.88 -21.91 -13.52 -37.09 -21.38 -14.45 -7.47 -37.14 -17.67 -52.56 -23.72 -18.74 -7.27 -27.28 -10.30 -49.68 -17.37 -28.84 -9.13 -29.43 -9.18 -45.78 -4.10 -49 15.18 -74.53 25.09 -109.42 42.41 -18.74 9.27 -40.85 21.67 -42.70 23.91 -0.44 0.54 -0.24 0.73 1.07 0.98 0.88 0.15 3.17 0.59 5.03 0.93 5.22 1.02 6.78 0.93 12.64 -0.88z m-2.05 -17.77 c12.64 -7.27 35.92 -18.69 53.59 -26.31 24.26 -10.40 41.39 -16.59 72.48 -26.21 18.94 -5.86 19.08 -5.91 25.87 -5.86 6.78 0 7.22 0.10 27.18 6.25 21.57 6.69 39.34 12.84 53.34 18.50 24.79 10.05 51.54 22.60 68.82 32.31 8.10 4.59 9.76 5.08 12.25 3.86 4.69 -2.29 7.13 -9.66 9.32 -27.77 1.22 -10.44 1.22 -34.75 0 -42.70 -2.15 -13.81 -6.34 -29.48 -9.03 -33.68 -1.90 -2.98 -8.54 -9.18 -16.89 -15.72 -8.15 -6.44 -9.66 -7.17 -14.01 -7.22 -4.29 0 -6 1.12 -8.15 5.37 -2.68 5.37 -3.47 10.59 -4 26.11 -0.24 7.52 -0.78 16.84 -1.22 20.74 -1.66 15.32 -7.08 43.29 -8.54 44.17 -0.78 0.49 -0.59 -1.76 1.46 -18.16 3.07 -24.79 3.95 -42.85 2.98 -59.20 -0.68 -11.03 -1.42 -14.69 -3.90 -19.77 -2 -4 -13.47 -22.55 -15.03 -24.30 -2.34 -2.59 -40.95 -19.86 -57.49 -25.72 -6.64 -2.34 -20.74 -6.25 -27.38 -7.56 -7.47 -1.51 -11.96 -1.51 -19.42 0 -21.28 4.29 -43.92 12.69 -73.31 27.09 l-11.76 5.76 -3.07 5.03 c-1.71 2.78 -5.12 8.30 -7.66 12.25 -7.91 12.49 -8.15 13.86 -8.20 41.14 0 20.94 0.15 23.18 2.93 45.83 2.34 18.89 2.20 22.35 -0.44 11.71 -2.73 -10.83 -5.76 -28.55 -6.88 -40.46 -0.44 -4.29 -0.88 -12.98 -1.02 -19.28 -0.54 -22.89 -3.71 -30.89 -12.25 -30.89 -3.71 0 -6.54 1.61 -15.52 8.88 -10.93 8.78 -14.54 12.35 -16.30 16.20 -2.64 5.61 -6.15 19.96 -8.20 33.63 -1.32 8.74 -1.17 28.16 0.24 40.46 0.63 5.17 1.46 11.18 1.85 13.32 1.95 10.20 6 15.96 10.79 15.32 0.83 -0.15 3.81 -1.51 6.59 -3.12z m44.32 -149.39 c8.49 -4.69 13.91 -7.86 14.06 -8.25 0.20 -0.63 -2.83 -2.39 -14.89 -8.83 -14.40 -7.71 -23.91 -11.18 -26.84 -9.86 l-1.12 0.54 1.90 5.22 c2.10 5.95 6.10 15.47 7.13 17.08 2.15 3.27 6.78 4.93 13.67 4.98 3.47 0.05 4.78 -0.15 6.10 -0.88z m230.12 -0.49 c3.42 -1.51 4.05 -2.25 6.10 -6.64 2.29 -4.98 7.32 -17.96 7.32 -18.99 0 -1.27 -5.22 -1.02 -9.57 0.44 -6.59 2.20 -33.63 16.35 -33.29 17.37 0.10 0.24 3.66 2.44 7.96 4.88 l7.81 4.39 5.61 -0.20 c4.44 -0.15 6.15 -0.44 8.05 -1.27z"/>
  <path d="M260.42 397.47 c-5.95 -2.59 -8.59 -5.03 -7.13 -6.78 0.93 -1.07 2.73 -0.88 6.98 0.73 2.10 0.83 4.44 1.46 5.22 1.46 0.78 0 3.22 -0.68 5.42 -1.46 4.69 -1.76 6.93 -1.76 7.17 -0.15 0.29 1.95 -0.83 3.03 -5.42 5.27 -5.42 2.64 -7.81 2.83 -12.25 0.93z"/>
  <path d="M238.41 374.73 c-0.98 -0.83 -2.34 -2.59 -2.98 -3.90 -0.98 -1.90 -1.42 -2.34 -2.05 -2.05 -2.59 1.07 -4.44 1.32 -5.17 0.73 -2 -1.66 -0.20 -4.20 4.59 -6.64 6.83 -3.47 27.92 -10.93 31.97 -11.32 2 -0.20 3.76 0.20 9.52 2.05 13.81 4.49 26.11 9.76 28.60 12.20 2.64 2.64 0.44 4.98 -3.27 3.51 -1.12 -0.44 -2.20 -0.68 -2.39 -0.59 -0.24 0.15 -1.07 1.42 -1.85 2.88 -2.49 4.34 -5.27 5.81 -7.13 3.76 -0.88 -0.93 -1.71 -5.51 -1.76 -9.18 0 -1.46 -0.24 -2.20 -0.83 -2.54 -0.49 -0.24 -4.59 -1.71 -9.18 -3.22 -5.56 -1.90 -9.08 -2.83 -10.74 -2.83 -1.71 0 -5.12 0.88 -11.57 3.03 -8.83 2.93 -9.18 3.07 -9.22 4.34 -0.05 3.81 -0.88 8.98 -1.61 10.10 -1.07 1.66 -2.78 1.56 -4.93 -0.34z m54.71 -6.34 c0.68 -1.27 0.63 -1.37 -0.73 -2.10 -0.83 -0.39 -1.56 -0.73 -1.76 -0.73 -0.34 0 -0.29 4.15 0.10 5.17 0.29 0.78 0.34 0.73 0.98 -0.10 0.39 -0.49 1.02 -1.51 1.42 -2.25z m-52.27 0.05 c0.20 -1.32 0.24 -2.54 0.15 -2.68 -0.34 -0.34 -3.32 0.83 -3.32 1.27 0 0.68 2 3.90 2.44 3.90 0.20 0 0.54 -1.12 0.73 -2.49z"/>
  <path d="M169.11 371.70 c-0.98 -1.46 -0.39 -2.88 1.61 -3.90 2 -1.02 9.08 -2.44 10.54 -2.05 1.71 0.44 2.25 2.49 0.93 3.81 -1.42 1.42 -7.13 3.32 -9.91 3.32 -2 0 -2.54 -0.20 -3.17 -1.17z"/>
  <path d="M353.74 371.75 c-3.81 -1.32 -5.27 -2.44 -5.27 -4.10 0 -2 1.90 -2.44 6.39 -1.51 5.32 1.12 7.47 2.20 7.66 3.95 0.10 0.78 -0.10 1.71 -0.44 2.10 -0.83 1.02 -4.59 0.83 -8.35 -0.44z"/>
  <path d="M166.72 359.65 c-2.34 -0.39 -4.69 -1.95 -4.69 -3.22 0 -0.34 0.44 -1.07 0.98 -1.61 0.83 -0.83 1.61 -0.98 5.03 -0.98 5.61 0 12.54 0.88 13.86 1.76 1.42 0.93 1.51 3.37 0.20 4.10 -1.12 0.59 -11.86 0.59 -15.37 -0.05z"/>
  <path d="M348.81 359.30 c-2.93 -3.27 2.78 -5.47 14.15 -5.47 4.88 0 6.10 0.54 5.91 2.54 -0.24 2.73 -2.44 3.42 -11.57 3.71 -7.22 0.20 -7.66 0.15 -8.49 -0.78z"/>
  <path d="M173.26 348.52 c-14.45 -5.91 -16.79 -7.32 -16.50 -9.71 0.10 -1.07 0.44 -1.37 1.76 -1.46 2.15 -0.20 5.27 0.83 14.25 4.88 8.98 4.05 11.66 5.61 12.01 7.13 0.39 1.42 -0.59 2.54 -2.20 2.54 -0.68 0 -4.88 -1.51 -9.32 -3.37z"/>
  <path d="M346.86 351.54 c-0.88 -0.83 -0.29 -3.07 1.07 -4 3.95 -2.83 21.47 -10.30 24.11 -10.30 2.29 0 3.22 1.12 2.29 2.83 -1.02 1.71 -5.37 4 -15.76 8.20 -8.25 3.37 -10.93 4.10 -11.71 3.27z"/>
  <path d="M251.35 330.17 c-1.12 -1.37 -0.05 -3.76 3.27 -6.93 3.66 -3.56 8.20 -6 11.08 -6 3.47 0.05 10.64 4.54 13.23 8.30 1.71 2.54 1.81 4.64 0.24 5.12 -1.17 0.39 -1.85 0 -6.10 -3.37 -1.85 -1.51 -4.34 -3.22 -5.51 -3.76 l-2.05 -1.02 -2.10 1.07 c-1.12 0.59 -3.47 2.25 -5.22 3.61 -4.73 3.81 -5.76 4.29 -6.83 2.98z"/>
  <path d="M201.57 329.58 c-1.32 -0.29 -23.91 -8.39 -33.92 -12.25 -7.47 -2.88 -15.28 -6.30 -31.09 -13.71 -13.71 -6.39 -18.99 -9.27 -29.53 -16.01 -9.32 -5.95 -9.13 -5.71 -8.83 -13.96 0.15 -5.95 0.29 -6.20 3.86 -6.20 4.64 0 45.24 8.05 65.11 12.93 14.35 3.56 33.29 9.03 51.25 14.89 19.86 6.49 24.65 8.30 24.65 9.32 0 0.93 -3.47 12.30 -4.20 13.67 -0.98 1.95 -2.05 2.59 -10.20 5.81 -12.30 4.83 -21.04 6.64 -27.09 5.51z m-6.74 -12.84 c-1.22 -1.02 -6 -2.93 -7.32 -2.93 -0.73 0 -0.73 0.10 -0.05 0.73 0.93 0.98 6.20 3.17 7.52 3.12 0.93 0 0.93 -0.05 -0.15 -0.93z m-2.83 -10.40 c-9.91 -5.08 -10.88 -6 -10.93 -10.35 l0 -2.44 -1.12 1.32 c-0.59 0.73 -1.85 1.76 -2.78 2.29 -3.03 1.81 -11.32 1.22 -21.62 -1.51 -2.10 -0.54 -3.90 -0.93 -4 -0.78 -0.10 0.10 3.37 1.46 7.71 3.03 15.81 5.71 17.18 6.44 17.72 9.47 l0.34 1.71 1.56 -1.85 c1.51 -1.85 1.56 -1.85 4.44 -1.61 1.56 0.15 5.51 1.17 8.74 2.25 3.22 1.07 6.10 1.95 6.34 2 0.29 0 -2.59 -1.56 -6.39 -3.51z m-29.97 -19.13 c-0.83 -0.98 -7.96 -3.66 -9.76 -3.66 -1.90 0 -1.95 1.17 0 2.20 2.05 1.07 6.25 2.15 8.49 2.15 1.61 0.05 1.81 -0.05 1.27 -0.68z"/>
  <path d="M316.01 328.51 c-5.86 -1.51 -14.79 -4.69 -19.67 -6.98 -2 -0.93 -3.27 -1.90 -3.76 -2.78 -0.88 -1.76 -4.15 -12.49 -4.15 -13.71 0 -1.42 2.20 -2.34 19.33 -8.05 19.57 -6.54 37.97 -11.96 54.47 -16.11 12.10 -3.03 48.51 -10.64 61.84 -12.88 9.03 -1.51 9.37 -1.22 8.83 8.39 -0.24 5.03 -0.34 5.37 -1.56 6.44 -2.34 2 -18.01 11.57 -24.55 14.93 -10.64 5.51 -33.68 15.96 -43.68 19.81 -7.27 2.78 -28.36 10.40 -31.43 11.32 -4.64 1.42 -9.03 1.32 -15.67 -0.39z m24.40 -12.05 c3.07 -1.22 4.05 -1.90 3.51 -2.49 -0.44 -0.39 -6.30 1.71 -7.66 2.78 -1.22 0.93 -1.22 0.98 -0.15 0.98 0.63 0 2.54 -0.59 4.29 -1.27z m-1.12 -8.74 c3.03 -0.98 6.98 -1.90 8.78 -2.05 l3.27 -0.29 1.07 1.85 c1.12 1.85 1.12 1.85 1.56 0.68 0.24 -0.63 0.63 -1.66 0.83 -2.20 0.54 -1.42 4.54 -3.22 15.96 -7.32 5.17 -1.81 9.32 -3.42 9.22 -3.47 -0.10 -0.10 -2 0.29 -4.25 0.78 -10.40 2.49 -18.01 3.12 -21.08 1.81 -0.88 -0.34 -2.20 -1.37 -2.93 -2.20 l-1.32 -1.61 0 2.05 c0 4.20 -1.22 5.32 -11.47 10.64 -3.76 1.95 -6.44 3.47 -6 3.32 0.44 -0.15 3.32 -1.02 6.34 -2z m38.31 -21.33 c3.27 -1.32 4.15 -2.83 1.61 -2.83 -1.71 0 -8.59 2.54 -10.05 3.71 -0.88 0.68 -0.68 0.73 2.34 0.49 1.81 -0.15 4.54 -0.73 6.10 -1.37z"/>
  <path d="M420.94 256.23 c-0.78 -0.20 -3.76 -1.22 -6.59 -2.29 -17.67 -6.69 -45 -13.03 -89.07 -20.64 -22.11 -3.81 -23.82 -4.20 -23.52 -5.03 0.10 -0.34 1.46 -0.78 3.07 -0.98 5.76 -0.78 12.84 -2.29 15.03 -3.27 2.44 -1.02 2.88 -2.20 1.37 -3.56 -3.61 -3.27 -20.94 -8.25 -41.19 -11.81 -13.42 -2.39 -18.59 -2.15 -36.99 1.51 -22.06 4.39 -36.16 9.66 -33.68 12.64 1.27 1.56 8.69 3.47 17.18 4.39 6.30 0.68 3.47 2.05 -8.88 4.15 -53.30 9.03 -80.58 15.18 -100.44 22.50 -3.51 1.32 -7.22 2.39 -8.15 2.39 -1.46 0 -1.71 -0.15 -1.71 -1.17 0 -1.61 1.46 -2.49 19.86 -11.66 31.58 -15.81 42.95 -20.74 84.58 -36.65 28.31 -10.79 45.63 -15.91 53.78 -15.91 8.49 0 26.45 5.37 56.03 16.74 42.66 16.45 53.54 21.13 83.60 36.36 15.32 7.81 18.55 9.66 18.79 10.93 0.20 1.12 -1.32 1.76 -3.07 1.37z"/>
  <path d="M106.59 234.80 c-3.32 -2.05 -5.12 -5.47 -6.54 -12.40 -1.66 -7.91 -2.10 -15.28 -1.81 -29.62 0.29 -12.84 0.93 -20.35 2.54 -30.02 1.61 -9.27 4.59 -19.77 5.66 -19.77 1.22 0 2.15 4.83 2.88 14.89 1.32 18.45 5.71 39.39 10.01 48.17 4.15 8.39 7.37 9.27 20.01 5.32 3.47 -1.12 6.78 -2 7.32 -2 2.44 0 2.93 2.59 0.88 4.44 -1.81 1.61 -19.42 13.91 -23.77 16.54 -7.81 4.73 -14.15 6.39 -17.18 4.44z"/>
  <path d="M416.36 234.75 c-4.05 -1.46 -10.83 -5.42 -18.11 -10.54 -3.61 -2.59 -8.54 -5.95 -10.88 -7.56 -4.49 -3.07 -5.81 -4.73 -4.88 -6.20 0.83 -1.37 2.59 -1.22 9.18 0.88 15.13 4.78 18.30 2.88 23.38 -13.86 3.22 -10.59 5.37 -23.13 6.88 -40.07 0.73 -8.44 1.71 -13.57 2.68 -14.15 1.02 -0.63 2.73 4.73 4.93 15.28 2.73 13.37 4.25 34.21 3.42 47.98 -1.46 24.50 -5.91 32.11 -16.59 28.26z"/>
  <path d="M161.98 204.54 c-0.88 -0.68 -1.02 -1.56 -1.27 -8.69 -0.24 -6.83 -0.20 -8.05 0.49 -9.13 1.02 -1.51 1.71 -1.27 3.17 0.93 1.66 2.64 3.22 2.29 7.81 -1.61 9.08 -7.66 12.25 -20.74 6.49 -26.50 -2.83 -2.83 -6.74 -3.51 -13.71 -2.29 -5.86 1.02 -6.05 0.59 -7.32 -14.10 -1.22 -13.91 -1.22 -16.89 -0.05 -19.42 1.12 -2.49 15.08 -23.82 17.18 -26.26 1.95 -2.29 2.54 -2.59 11.76 -6.15 4.10 -1.56 15.81 -6.34 26.01 -10.69 28.89 -12.15 42.41 -16.98 44.02 -15.62 1.76 1.46 -1.66 9.03 -6.64 14.84 -3.90 4.59 -10.10 9.86 -16.40 13.96 -6.64 4.34 -23.43 12.45 -36.85 17.72 -11.76 4.69 -23.91 10.25 -23.91 11.03 0 0.54 2.34 1.12 13.67 3.42 15.81 3.12 21.91 5.51 27.38 10.79 7.71 7.37 7.08 19.13 -2 37.73 -3.42 7.03 -10.15 18.74 -11.81 20.55 -0.63 0.73 -2.20 1.32 -5.17 1.85 -5.27 1.02 -9.47 2.15 -19.13 5.17 -9.96 3.07 -12.45 3.56 -13.71 2.49z"/>
  <path d="M364.82 204.74 c-1.61 -0.34 -6.88 -1.85 -11.71 -3.37 -4.83 -1.51 -11.37 -3.32 -14.54 -3.95 -3.22 -0.68 -6.15 -1.42 -6.59 -1.66 -1.02 -0.54 -8.44 -12.79 -11.47 -18.84 -10.59 -21.13 -11.23 -33.24 -2.20 -41 5.37 -4.59 12.10 -7.17 26.16 -9.96 11.91 -2.39 14.35 -2.98 14.15 -3.56 -0.24 -0.68 -11.57 -5.86 -21.62 -9.81 -28.21 -11.18 -40.80 -18.16 -52.03 -28.99 -6.44 -6.20 -10.69 -13.18 -10.69 -17.47 0 -1.02 0.20 -1.22 1.56 -1.22 4.39 0 25.38 7.91 51.39 19.38 2.15 0.98 9.13 3.76 15.57 6.30 6.39 2.49 12.10 4.93 12.64 5.42 0.54 0.49 2.20 2.73 3.66 5.03 1.46 2.29 5.22 7.96 8.25 12.59 3.07 4.69 5.95 9.27 6.34 10.25 0.63 1.46 0.68 3.07 0.49 8.39 -0.49 10.54 -1.37 21.08 -2 22.89 -0.83 2.54 -1.56 2.73 -6.30 2 -10.30 -1.61 -15.32 1.17 -16.25 8.93 -0.68 5.71 1.95 12.05 7.47 17.91 5.32 5.66 8.05 6.69 9.86 3.61 0.78 -1.27 1.32 -1.71 2.15 -1.56 1.07 0.15 1.07 0.20 1.07 9.08 0 8.30 -0.05 9.03 -0.93 9.66 -0.54 0.39 -1.07 0.68 -1.22 0.63 -0.15 0 -1.61 -0.29 -3.22 -0.68z"/>
  <path d="M139.92 186.58 c-0.98 -1.17 -2.44 -6.20 -4.25 -14.79 -3.12 -14.84 -6.15 -23.62 -9.32 -26.94 -1.81 -1.90 -1.81 -1.90 -5.12 -1.76 -5.03 0.24 -4.83 -0.59 1.37 -6.69 4.88 -4.83 8.10 -7.17 10.69 -7.81 0.93 -0.24 1.66 0 2.78 0.98 3.17 2.64 5.66 14.59 6.44 30.75 0.83 16.69 0.83 25.33 0.05 26.26 -0.83 1.07 -1.66 1.02 -2.64 0z"/>
  <path d="M388.49 186.48 c-0.63 -1.22 -0.63 -9.13 0 -22.50 1.12 -22.74 3.61 -33.43 8.25 -35.24 1.95 -0.73 5.76 1.56 11.03 6.54 7.08 6.69 7.56 8.64 2.05 7.96 -2.39 -0.29 -2.73 -0.20 -4.20 1.02 -1.95 1.61 -4.93 7.61 -6.64 13.13 -0.68 2.15 -2.10 8.05 -3.17 13.13 -2.15 10.20 -2.93 13.08 -4.10 15.37 -0.93 1.71 -2.44 2 -3.22 0.59z"/>
  <path d="M224.31 186 c-0.59 -0.93 0.39 -2 5.47 -6.30 8.25 -6.88 20.50 -15.42 26.84 -18.59 5.42 -2.73 10.44 -3.03 16.06 -0.93 7.96 2.93 34.31 22.45 34.31 25.38 0 1.42 -1.95 1.07 -10.44 -1.76 -23.13 -7.81 -38.56 -7.81 -61.59 0 -7.66 2.59 -10.10 3.07 -10.64 2.20z"/>
  <path d="M217.43 176.97 c-1.02 -1.56 -0.83 -2.29 4.25 -13.71 7.03 -15.76 8.69 -20.74 8.69 -26.16 0 -6.25 -2.54 -8.69 -10.88 -10.69 -4.98 -1.17 -14.74 -2.68 -22.55 -3.47 -6.88 -0.68 -8.54 -1.32 -8.54 -3.37 0 -2.54 2.78 -3.76 17.52 -7.86 13.91 -3.86 25.23 -7.91 32.75 -11.66 13.57 -6.83 19.03 -13.96 23.43 -30.50 1.46 -5.42 2.44 -7.56 3.51 -7.56 1.02 0 2.29 2.10 2.83 4.73 1.02 5.08 3.47 12.01 5.76 16.45 6.39 12.45 17.91 18.89 50.61 28.36 15.76 4.54 18.30 5.66 18.30 7.96 -0.05 2.25 -1.56 2.83 -8.83 3.51 -3.32 0.29 -8.78 0.98 -12.15 1.51 -17.86 2.83 -21.33 4.98 -21.18 13.13 0.10 4.93 1.95 10.44 8.30 24.99 2.78 6.34 5.08 12.20 5.08 12.98 0 1.95 -1.02 2.73 -3.12 2.34 -1.71 -0.34 -6.25 -3.27 -22.55 -14.50 -14.54 -10.05 -19.47 -11.86 -27.62 -10.15 -4.59 0.98 -10.98 4.78 -26.99 16.01 -13.08 9.27 -14.98 10.10 -16.59 7.66z m24.50 -18.79 c10.40 -7.03 14.06 -8.98 18.55 -9.81 3.66 -0.73 9.66 -0.39 13.13 0.68 3.37 1.07 11.37 5.95 23.38 14.35 5.47 3.81 10.15 6.93 10.44 6.93 0.29 0 -0.20 -1.46 -0.98 -3.27 -6.78 -15.08 -10.20 -25.13 -10.20 -30.11 0 -3.90 1.22 -7.37 3.37 -9.52 3.37 -3.37 9.08 -5.37 21.43 -7.42 3.81 -0.63 6.93 -1.27 6.93 -1.46 0 -0.20 -1.42 -0.68 -3.12 -1.12 -6 -1.46 -26.94 -8.59 -31.53 -10.69 -14.10 -6.39 -21.67 -13.67 -26.16 -25.13 -0.73 -1.95 -1.51 -3.51 -1.66 -3.51 -0.20 0 -0.59 0.93 -0.93 2.10 -0.34 1.12 -1.66 4.05 -2.88 6.44 -3.07 5.91 -9.18 12.15 -15.47 15.86 -7.71 4.54 -19.77 9.13 -37.09 14.15 -2.93 0.88 -5.56 1.76 -5.81 1.95 -0.20 0.24 0.88 0.54 2.44 0.73 4.73 0.54 15.03 2.64 17.86 3.61 11.47 3.95 13.86 10.79 8.93 25.18 -0.93 2.68 -3.32 8.69 -5.37 13.37 -2 4.69 -3.66 8.74 -3.66 8.93 0 0.24 2.05 -0.98 4.54 -2.73 2.44 -1.76 8.69 -6.05 13.86 -9.52z"/>
  <path d="M289.37 147.59 c-9.18 -8.49 -17.33 -12.88 -23.87 -12.88 -6.34 0 -14.74 4.54 -23.77 12.88 -5.17 4.83 -5.42 4.54 -2.78 -3.17 3.17 -9.42 2.73 -14.69 -1.71 -19.57 -2.68 -2.93 -5.76 -4.78 -9.91 -6 -4.44 -1.27 -4 -1.61 3.03 -2.73 9.47 -1.46 18.74 -6.34 25.23 -13.27 3.37 -3.61 6.93 -8.49 8.25 -11.18 1.22 -2.59 2.25 -2.39 4 0.68 2.29 4.10 5.61 8.25 9.71 12.15 6.30 5.95 14.01 9.91 22.35 11.42 6.20 1.07 6.59 1.17 6.59 1.71 0 0.24 -0.93 0.68 -2.05 1.02 -3.37 0.88 -7.66 3.27 -9.86 5.47 -3.03 3.03 -3.90 5.22 -4.10 10.15 -0.20 3.90 -0.05 4.64 1.85 10.20 1.42 4 1.90 6.10 1.56 6.44 -0.34 0.34 -1.81 -0.73 -4.54 -3.32z"/>
 </g>
</svg>